<svg width="30" height="30" viewBox="0 0 30 30" fill="none" xmlns="http://www.w3.org/2000/svg">
<rect width="30" height="30" rx="4" fill="white"/>
<path d="M9.125 12.9C9.94167 9.63333 11.9833 8 15.25 8C20.15 8 20.7625 11.675 23.2125 12.2875C24.8458 12.6958 26.275 12.0833 27.5 10.45C26.6833 13.7167 24.6417 15.35 21.375 15.35C16.475 15.35 15.8625 11.675 13.4125 11.0625C11.7792 10.6542 10.35 11.2667 9.125 12.9ZM3 20.25C3.81667 16.9833 5.85833 15.35 9.125 15.35C14.025 15.35 14.6375 19.025 17.0875 19.6375C18.7208 20.0458 20.15 19.4333 21.375 17.8C20.5583 21.0667 18.5167 22.7 15.25 22.7C10.35 22.7 9.7375 19.025 7.2875 18.4125C5.65417 18.0042 4.225 18.6167 3 20.25Z" fill="#38BDF8" stroke="black" stroke-width="0.00032"/>
</svg>
